<svg id="Layer_1" data-name="Layer 1" xmlns="http://www.w3.org/2000/svg" viewBox="0 0 410 300.89"><defs><style>.cls-1{fill:#cad1d8;}.cls-2{fill:#c0392b;}.cls-3{fill:#fff;}</style></defs><title>media</title><path class="cls-1" d="M64,336v33.39c0,18.37,8.64,33.39,19.2,33.39H448V369.39H83.2C72.64,369.39,64,354.37,64,336Z" transform="translate(-64 -116.11)"/><path class="cls-1" d="M434.08,130.94l0,281.81h20.88l0-281.81c0-8.16-9.4-14.83-20.88-14.83H413.2C424.68,116.11,434.08,122.79,434.08,130.94Z" transform="translate(-64 -116.11)"/><path class="cls-2" d="M448,372.57c0,12.82-7.2,23.31-16,23.31H80c-8.8,0-16-10.49-16-23.31V139.43c0-12.82,7.2-23.31,16-23.31H432c8.8,0,16,10.49,16,23.31Z" transform="translate(-64 -116.11)"/><path class="cls-3" d="M273.86,235l-37.3-27.1V314.46l37.3-27.1,36.08-26.16Zm0,0-37.3-27.1V314.46l37.3-27.1,36.08-26.16Zm0,0-37.3-27.1V314.46l37.3-27.1,36.08-26.16Zm-25.07-67.7V143.44a123.85,123.85,0,0,0-65.07,26.16l17.37,16.92A98.87,98.87,0,0,1,248.79,167.35Zm-64.94,35.86L166.36,186.4a115.78,115.78,0,0,0-27,63H164A92.4,92.4,0,0,1,183.85,203.21ZM164,273H139.33a115.78,115.78,0,0,0,27,63l17.49-16.92A91.56,91.56,0,0,1,164,273Zm19.69,79.77A124.26,124.26,0,0,0,248.79,379V355.05a98.87,98.87,0,0,1-47.7-19.17Zm199.6-91.61c0,61.07-47.94,111.49-109.46,117.76V355.05c47.94-6.15,85-45.92,85-93.85s-37.06-87.7-85-93.85V143.44C335.38,149.71,383.33,200.13,383.33,261.2Z" transform="translate(-64 -116.11)"/><path class="cls-3" d="M396,402.79h38.06s20.89-3.36,20.89-23.83S474,417,474,417H396Z" transform="translate(-64 -116.11)"/></svg>