<svg id="Layer_1" data-name="Layer 1" xmlns="http://www.w3.org/2000/svg" viewBox="0 0 448 512"><defs><style>.cls-1{fill:#e2e5e7;}.cls-2{fill:#b0b7bd;}.cls-3{fill:#cad1d8;}.cls-4{fill:#e67e22;}.cls-5{font-size:118.71px;fill:#fff;font-family:ArialRoundedMTBold, Arial Rounded MT Bold;}</style></defs><title>html</title><path class="cls-1" d="M128,0A32.09,32.09,0,0,0,96,32V480a32.09,32.09,0,0,0,32,32H448a32.09,32.09,0,0,0,32-32V128L352,0Z" transform="translate(-32)"/><path class="cls-2" d="M384,128h96L352,0V96A32.09,32.09,0,0,0,384,128Z" transform="translate(-32)"/><polygon class="cls-3" points="448 224 352 128 448 128 448 224"/><path class="cls-4" d="M416,416a16,16,0,0,1-16,16H48a16,16,0,0,1-16-16V256a16,16,0,0,1,16-16H400a16,16,0,0,1,16,16Z" transform="translate(-32)"/><text class="cls-5" transform="translate(41 381) scale(0.89 1)">HTML</text><path class="cls-3" d="M400,432H96v16H400a16,16,0,0,0,16-16V416A16,16,0,0,1,400,432Z" transform="translate(-32)"/><text x="-32"></text></svg>